# xmcd CD database file
#
# Track frame offsets:
#	225
#	12431
#	25318
#	39846
#	51051
#	61863
#	73137
#	89071
#	98485
#	111467
#	124712
#
# Disc length: 1799 seconds
#
# Revision: 0
# Processed by: cddbd v1.5.2PL0 Copyright (c) Steve Scherf et al.
# Submitted via: CDex 1.51
#
DISCID=9107040b
DTITLE=Joe Baker and his Barefoot Brakemen - Shook, Broke, Hung
DYEAR=1900
DGENRE=Country
TTITLE0=Why Are You Doing This To Me
TTITLE1=Please Don't Talk About Me When I'm Gone
TTITLE2=Gonna Lay Down My Old Guitar
TTITLE3=Wiping Back These Tears
TTITLE4=A Satisfied Mind
TTITLE5=Wasn't That Nice
TTITLE6=China Boy
TTITLE7=You Want Everything But Me
TTITLE8=I'm Gonna Go Fishin
TTITLE9=Baker's Boogie
TTITLE10=Owyhee River Home
EXTD=
EXTT0=
EXTT1=
EXTT2=
EXTT3=
EXTT4=
EXTT5=
EXTT6=
EXTT7=
EXTT8=
EXTT9=
EXTT10=
PLAYORDER=
